<svg width="585" height="141" viewBox="0 0 585 141" fill="none" xmlns="http://www.w3.org/2000/svg">
<path d="M53.8335 83.112C52.1695 81.064 51.3375 79.24 51.3375 77.64C51.3375 75.976 52.7135 73.8 55.4655 71.112C57.0655 69.576 58.7615 68.808 60.5535 68.808C62.3455 68.808 64.8415 70.408 68.0415 73.608C68.9375 74.696 70.2175 75.752 71.8815 76.776C73.5455 77.736 75.0815 78.216 76.4895 78.216C82.4415 78.216 85.4175 75.784 85.4175 70.92C85.4175 69.448 84.5855 68.232 82.9215 67.272C81.3215 66.248 79.3055 65.512 76.8735 65.064C74.4415 64.616 71.8175 63.912 69.0015 62.952C66.1855 61.928 63.5615 60.744 61.1295 59.4C58.6975 58.056 56.6495 55.944 54.9855 53.064C53.3855 50.12 52.5855 46.6 52.5855 42.504C52.5855 36.872 54.6655 31.976 58.8255 27.816C63.0495 23.592 68.7775 21.48 76.0095 21.48C79.8495 21.48 83.3375 21.992 86.4735 23.016C89.6735 23.976 91.8815 24.968 93.0975 25.992L95.4975 27.816C97.4815 29.672 98.4735 31.24 98.4735 32.52C98.4735 33.8 97.7055 35.56 96.1695 37.8C93.9935 41 91.7535 42.6 89.4495 42.6C88.1055 42.6 86.4415 41.96 84.4575 40.68C84.2655 40.552 83.8815 40.232 83.3055 39.72C82.7935 39.208 82.3135 38.792 81.8655 38.472C80.5215 37.64 78.7935 37.224 76.6815 37.224C74.6335 37.224 72.9055 37.736 71.4975 38.76C70.1535 39.72 69.4815 41.096 69.4815 42.888C69.4815 44.616 70.2815 46.024 71.8815 47.112C73.5455 48.2 75.5935 48.936 78.0255 49.32C80.4575 49.704 83.1135 50.312 85.9935 51.144C88.8735 51.912 91.5295 52.872 93.9615 54.024C96.3935 55.176 98.4095 57.192 100.01 60.072C101.674 62.888 102.506 66.376 102.506 70.536C102.506 74.696 101.674 78.376 100.01 81.576C98.3455 84.712 96.1695 87.144 93.4815 88.872C88.2975 92.264 82.7615 93.96 76.8735 93.96C73.8655 93.96 71.0175 93.608 68.3295 92.904C65.6415 92.136 63.4655 91.208 61.8015 90.12C58.4095 88.072 56.0415 86.088 54.6975 84.168L53.8335 83.112ZM107.306 67.752C107.306 60.072 109.994 53.736 115.37 48.744C120.746 43.752 126.89 41.256 133.802 41.256C140.714 41.256 146.826 43.752 152.138 48.744C157.45 53.672 160.106 59.976 160.106 67.656C160.106 72.968 158.73 77.704 155.978 81.864C153.226 85.96 149.866 89 145.898 90.984C141.994 92.904 137.93 93.864 133.706 93.864C129.482 93.864 125.386 92.84 121.418 90.792C117.45 88.68 114.09 85.608 111.338 81.576C108.65 77.48 107.306 72.872 107.306 67.752ZM127.37 74.664C129.418 76.2 131.498 76.968 133.61 76.968C135.722 76.968 137.834 76.168 139.946 74.568C142.058 72.968 143.114 70.6 143.114 67.464C143.114 64.328 142.122 61.992 140.138 60.456C138.154 58.92 136.01 58.152 133.706 58.152C131.402 58.152 129.258 58.952 127.274 60.552C125.29 62.152 124.298 64.52 124.298 67.656C124.298 70.728 125.322 73.064 127.37 74.664ZM188.773 92.808C182.309 92.808 176.933 90.376 172.645 85.512C168.421 80.584 166.309 74.6 166.309 67.56V50.76C166.309 49.224 166.341 48.104 166.405 47.4C166.533 46.696 166.821 45.864 167.269 44.904C168.165 43.176 170.661 42.312 174.757 42.312C179.237 42.312 181.861 43.528 182.629 45.96C183.013 46.984 183.205 48.616 183.205 50.856V67.656C183.205 70.28 183.941 72.328 185.413 73.8C186.949 75.272 188.965 76.008 191.461 76.008C194.021 76.008 196.069 75.24 197.605 73.704C199.205 72.168 200.005 70.152 200.005 67.656V50.664C200.005 49.192 200.037 48.104 200.101 47.4C200.229 46.632 200.549 45.768 201.061 44.808C201.893 43.144 204.357 42.312 208.453 42.312C212.485 42.312 214.949 43.176 215.845 44.904C216.293 45.864 216.549 46.728 216.613 47.496C216.741 48.2 216.805 49.288 216.805 50.76V84.744C216.805 86.152 216.741 87.24 216.613 88.008C216.549 88.712 216.261 89.512 215.749 90.408C214.789 92.072 212.325 92.904 208.357 92.904C204.453 92.904 202.053 92.136 201.157 90.6C200.517 89.512 200.197 88.2 200.197 86.664C199.941 87.112 199.365 87.752 198.469 88.584C197.573 89.416 196.709 90.12 195.877 90.696C193.701 92.104 191.333 92.808 188.773 92.808ZM224.528 27.048C224.528 25.576 224.56 24.488 224.624 23.784C224.752 23.016 225.04 22.152 225.488 21.192C226.384 19.464 228.88 18.6 232.976 18.6C236.88 18.6 239.312 19.464 240.272 21.192C240.784 22.152 241.072 23.016 241.136 23.784C241.264 24.552 241.328 25.672 241.328 27.144V71.592C241.328 73.896 241.52 75.368 241.904 76.008C242.288 76.584 243.12 76.872 244.4 76.872C245.744 76.872 246.64 76.936 247.088 77.064C247.536 77.128 248.08 77.384 248.72 77.832C250 78.664 250.64 80.936 250.64 84.648C250.64 88.68 250 91.144 248.72 92.04C247.056 93.192 243.088 93.384 236.816 92.616C231.888 91.976 228.688 90.344 227.216 87.72C225.424 84.584 224.528 79.592 224.528 72.744V27.048Z" fill="#364C63"/>
<path d="M330.718 25.32C331.23 26.28 331.518 27.144 331.582 27.912C331.71 28.68 331.774 29.8 331.774 31.272V84.552C331.774 88.968 330.558 91.56 328.126 92.328C326.91 92.712 325.374 92.904 323.518 92.904C321.662 92.904 320.19 92.744 319.102 92.424C318.014 92.104 317.182 91.72 316.606 91.272C316.03 90.824 315.582 90.184 315.262 89.352C314.942 88.264 314.782 86.6 314.782 84.36V52.2C313.182 54.184 310.846 57.352 307.774 61.704C304.702 65.992 302.75 68.68 301.918 69.768C301.086 70.856 300.51 71.624 300.19 72.072C299.87 72.456 299.07 73.032 297.79 73.8C296.574 74.504 295.23 74.856 293.758 74.856C292.35 74.856 291.038 74.536 289.822 73.896C288.67 73.192 287.838 72.52 287.326 71.88L286.558 70.824C285.278 69.224 282.75 65.832 278.974 60.648C275.198 55.4 273.15 52.584 272.83 52.2V84.552C272.83 86.024 272.766 87.144 272.638 87.912C272.574 88.616 272.286 89.416 271.774 90.312C270.814 92.04 268.318 92.904 264.286 92.904C260.382 92.904 257.95 92.04 256.99 90.312C256.478 89.416 256.158 88.584 256.03 87.816C255.966 87.048 255.934 85.896 255.934 84.36V31.08C255.934 29.608 255.966 28.52 256.03 27.816C256.158 27.048 256.478 26.184 256.99 25.224C257.95 23.56 260.446 22.728 264.478 22.728C266.206 22.728 267.678 22.952 268.894 23.4C270.174 23.784 271.006 24.2 271.39 24.648L271.966 25.224L293.758 53.832C304.638 39.432 311.902 29.928 315.55 25.32C316.638 23.592 319.198 22.728 323.23 22.728C327.326 22.728 329.822 23.592 330.718 25.32ZM372.297 47.784C372.681 44.2 375.209 42.408 379.881 42.408C382.377 42.408 384.233 42.6 385.449 42.984C386.665 43.368 387.497 44.04 387.945 45C388.457 45.96 388.745 46.824 388.809 47.592C388.937 48.296 389.001 49.384 389.001 50.856V84.456C389.001 85.928 388.937 87.048 388.809 87.816C388.745 88.52 388.489 89.352 388.041 90.312C387.145 91.976 384.937 92.808 381.417 92.808C377.961 92.808 375.625 92.392 374.409 91.56C373.257 90.664 372.585 89.384 372.393 87.72C370.025 91.112 366.057 92.808 360.489 92.808C354.985 92.808 349.865 90.28 345.129 85.224C340.393 80.168 338.025 74.312 338.025 67.656C338.025 60.936 340.393 55.08 345.129 50.088C349.929 45.032 355.177 42.504 360.873 42.504C363.049 42.504 365.033 42.888 366.825 43.656C368.617 44.424 369.865 45.16 370.569 45.864C371.273 46.504 371.849 47.144 372.297 47.784ZM354.825 67.752C354.825 69.864 355.657 71.784 357.321 73.512C358.985 75.176 361.001 76.008 363.369 76.008C365.737 76.008 367.689 75.144 369.225 73.416C370.825 71.688 371.625 69.8 371.625 67.752C371.625 65.64 370.857 63.688 369.321 61.896C367.849 60.104 365.833 59.208 363.273 59.208C360.777 59.208 358.729 60.104 357.129 61.896C355.593 63.688 354.825 65.64 354.825 67.752ZM426.029 59.4L419.789 59.016V72.264C419.789 73.992 420.045 75.24 420.557 76.008C421.133 76.776 422.157 77.16 423.629 77.16C425.165 77.16 426.317 77.224 427.085 77.352C427.917 77.416 428.781 77.704 429.677 78.216C431.149 79.048 431.885 81.192 431.885 84.648C431.885 88.68 430.989 91.144 429.197 92.04C428.237 92.488 427.373 92.776 426.605 92.904C425.901 92.968 424.845 93 423.437 93C416.781 93 411.725 91.496 408.269 88.488C404.813 85.48 403.085 80.392 403.085 73.224V59.016C401.869 59.208 400.557 59.304 399.148 59.304C397.741 59.304 396.557 58.76 395.597 57.672C394.701 56.584 394.253 54.728 394.253 52.104C394.253 49.48 394.413 47.592 394.733 46.44C395.053 45.224 395.501 44.36 396.077 43.848C397.101 43.016 398.381 42.6 399.917 42.6L403.085 42.984V33.096C403.085 31.624 403.117 30.536 403.181 29.832C403.309 29.128 403.629 28.36 404.141 27.528C404.973 25.928 407.437 25.128 411.533 25.128C415.885 25.128 418.477 26.312 419.309 28.68C419.629 29.704 419.789 31.336 419.789 33.576V42.984C422.605 42.728 424.717 42.6 426.125 42.6C427.597 42.6 428.685 42.664 429.389 42.792C430.157 42.856 431.021 43.144 431.981 43.656C433.645 44.488 434.477 46.952 434.477 51.048C434.477 55.08 433.613 57.544 431.885 58.44C430.925 58.888 430.061 59.176 429.293 59.304C428.589 59.368 427.501 59.4 426.029 59.4ZM486.671 61.704C486.671 65.608 485.679 68.52 483.695 70.44C481.775 72.296 479.631 73.224 477.263 73.224H454.511C454.511 75.016 455.567 76.52 457.679 77.736C459.791 78.952 461.903 79.56 464.015 79.56C467.727 79.56 470.639 79.176 472.751 78.408L473.807 78.024C475.343 77.32 476.623 76.968 477.647 76.968C479.695 76.968 481.455 78.408 482.927 81.288C483.759 83.016 484.175 84.488 484.175 85.704C484.175 91.4 477.359 94.248 463.727 94.248C458.991 94.248 454.767 93.448 451.055 91.848C447.407 90.184 444.559 88.008 442.511 85.32C438.479 80.136 436.463 74.344 436.463 67.944C436.463 59.88 439.055 53.448 444.239 48.648C449.487 43.784 456.015 41.352 463.823 41.352C472.719 41.352 479.247 44.488 483.406 50.76C485.583 54.088 486.671 57.736 486.671 61.704ZM466.415 64.488C468.847 64.488 470.063 63.464 470.063 61.416C470.063 59.944 469.487 58.76 468.335 57.864C467.247 56.968 465.647 56.52 463.535 56.52C461.487 56.52 459.439 57.384 457.391 59.112C455.343 60.776 454.319 62.568 454.319 64.488H466.415ZM493.318 88.488C492.102 87.72 491.494 86.504 491.494 84.84C491.494 83.176 492.71 80.648 495.142 77.256C495.846 76.168 496.966 75.624 498.502 75.624C500.102 75.624 502.246 76.424 504.934 78.024C507.622 79.56 510.054 80.328 512.23 80.328C516.134 80.328 518.086 79.56 518.086 78.024C518.086 76.808 515.942 75.912 511.654 75.336C507.622 74.76 503.622 73.256 499.654 70.824C497.798 69.672 496.262 67.88 495.046 65.448C493.83 62.952 493.222 60.008 493.222 56.616C493.222 46.504 500.166 41.448 514.054 41.448C518.598 41.448 523.27 42.536 528.07 44.712C530.31 45.736 531.43 47.016 531.43 48.552C531.43 50.088 530.726 51.976 529.318 54.216C527.91 56.456 526.47 57.576 524.998 57.576C524.23 57.576 522.79 57.096 520.678 56.136C518.63 55.176 516.39 54.696 513.958 54.696C510.182 54.696 508.294 55.4 508.294 56.808C508.294 58.728 510.47 59.976 514.822 60.552C519.046 61 523.142 62.216 527.11 64.2C528.966 65.096 530.502 66.664 531.718 68.904C532.998 71.08 533.638 73.832 533.638 77.16C533.638 80.488 532.998 83.336 531.718 85.704C530.502 88.008 528.774 89.736 526.534 90.888C522.438 92.872 517.286 93.864 511.078 93.864C504.934 93.864 499.014 92.072 493.318 88.488Z" fill="white"/>
<path d="M295.84 95.6016L285.413 83.1974L306.14 83.0776L295.84 95.6016Z" fill="#364C63"/>
</svg>
